<svg width="358" height="50" viewBox="0 0 358 50" fill="none" xmlns="http://www.w3.org/2000/svg">
<rect width="358" height="50" rx="2" fill="black"/>
<path d="M168.13 34.7919H169.639V31.6215H178.869V34.7663H180.377V30.2152H178.869V18.5306H171.096L170.815 24.0533C170.636 27.8118 169.843 29.4226 168.974 30.2152H168.13V34.7919ZM170.866 30.2152C171.659 28.9624 172.17 26.9169 172.323 24.0533L172.528 19.9368H177.36V30.2152H170.866ZM185.457 31.8516C187.17 31.8516 188.065 30.9311 188.372 30.2919H188.449V31.6215H189.957V25.1527C189.957 22.0334 187.58 21.6754 186.327 21.6754C184.844 21.6754 183.156 22.1868 182.389 23.9766L183.821 24.4879C184.153 23.772 184.94 23.005 186.378 23.005C187.765 23.005 188.449 23.7401 188.449 24.9993V25.0504C188.449 25.7791 187.707 25.7152 185.918 25.9453C184.096 26.1818 182.108 26.5845 182.108 28.8345C182.108 30.7521 183.591 31.8516 185.457 31.8516ZM185.688 30.4965C184.486 30.4965 183.616 29.9595 183.616 28.9112C183.616 27.7607 184.665 27.4027 185.841 27.2493C186.48 27.1726 188.193 26.9936 188.449 26.6868V28.0675C188.449 29.2948 187.477 30.4965 185.688 30.4965Z" fill="white"/>
</svg>
